<?xml version="1.0" encoding="UTF-8"?>
<svg width="20px" height="22px" viewBox="0 0 20 22" version="1.1" xmlns="http://www.w3.org/2000/svg" xmlns:xlink="http://www.w3.org/1999/xlink">
    <!-- Generator: Sketch 61 (89581) - https://sketch.com -->
    <title>movie-roll</title>
    <desc>Created with Sketch.</desc>
    <g id="Page-1" stroke="none" stroke-width="1" fill="none" fill-rule="evenodd">
        <g id="movie-roll" fill="#ffff" fill-rule="nonzero">
            <path d="M19.880531,19.8812389 C19.6354572,19.6302655 19.1676696,19.099174 18.7878466,18.3633038 C18.0750442,16.9819469 17.9709145,15.5273746 18.4782301,14.039823 C19.0014749,12.5057817 19.2568732,11.0339233 19.2373451,9.66489676 L19.2379941,9.6120354 C19.2379351,4.3119174 14.9260767,0 9.6260177,0 C4.3260177,0 0.014100295,4.3119764 0.014100295,9.6120944 C0.014100295,14.9120944 4.3259587,19.2240118 9.6260177,19.2240118 C12.2753982,19.2240118 14.7431268,18.1689676 16.5746313,16.2532743 C16.6311504,17.2557522 16.9079646,18.2343953 17.3975221,19.1617699 C17.8943363,20.1030678 18.4926844,20.7632448 18.8051917,21.0729794 C18.860531,21.1279056 18.9352212,21.1584661 19.0129204,21.1584661 C19.0171681,21.1584661 19.0215339,21.1584661 19.0258997,21.1581121 C19.1081416,21.1545133 19.1850147,21.1167552 19.2382301,21.0539233 L19.8946313,20.2779941 C19.9927434,20.1618289 19.9867257,19.9901475 19.880531,19.8812389 Z M5.53958702,7.25274336 C5.25946903,7.7379941 4.73699115,8.03941003 4.1759882,8.03941003 C3.90153392,8.03941003 3.6300885,7.96648968 3.39103245,7.82849558 C3.02719764,7.61840708 2.76690265,7.27923304 2.65823009,6.87345133 C2.54949853,6.46766962 2.60536873,6.04377581 2.81545723,5.67988201 C3.09557522,5.19463127 3.6180531,4.89321534 4.17905605,4.89321534 C4.45345133,4.89321534 4.72489676,4.96613569 4.96389381,5.1040708 C5.71498525,5.5379351 5.97327434,6.50188791 5.53958702,7.25274336 Z M2.65817109,12.3506195 C2.76690265,11.9448378 3.02713864,11.6057227 3.39091445,11.3955752 C3.6300295,11.2576401 3.90153392,11.1846608 4.1759882,11.1846608 C4.73687316,11.1846608 5.25941003,11.4860177 5.53958702,11.9713274 C5.97327434,12.7223009 5.71498525,13.6860767 4.9640118,14.119941 C4.72483776,14.2579941 4.45339233,14.3309145 4.17899705,14.3309145 C3.6180531,14.3309145 3.09557522,14.0294985 2.81539823,13.5441298 C2.60530973,13.180354 2.54949853,12.7564602 2.65817109,12.3506195 Z M9.6260177,14.3305605 L9.6260177,14.3305605 C10.0461947,14.3305605 10.4411209,14.4940413 10.7382891,14.7913274 C11.0352802,15.0883776 11.1989381,15.4833038 11.1989381,15.9036578 C11.1989381,16.7709145 10.4933923,17.4764602 9.62613569,17.4764602 C8.75893805,17.4764602 8.05339233,16.7709145 8.05339233,15.9036578 C8.05333333,15.0362832 8.75882006,14.3305605 9.6260177,14.3305605 Z M9.6260177,4.89345133 C8.75882006,4.89345133 8.05327434,4.1879056 8.05327434,3.32064897 C8.05327434,2.45333333 8.75882006,1.74772861 9.6260177,1.74772861 C10.4932743,1.74772861 11.1988201,2.45333333 11.1988201,3.32064897 C11.1988201,4.1879056 10.4932743,4.89345133 9.6260177,4.89345133 Z M9.6260177,7.55870206 C10.7582891,7.55870206 11.679528,8.47982301 11.679528,9.61215339 C11.679528,10.7443068 10.7584071,11.6654867 9.6260177,11.6654867 C8.49380531,11.6654867 7.57268437,10.7444248 7.57268437,9.61215339 C7.57274336,8.47982301 8.49380531,7.55870206 9.6260177,7.55870206 Z M15.8612389,7.82843658 C15.6219469,7.96648968 15.3506195,8.03941003 15.0760472,8.03941003 C14.5151032,8.03941003 13.9926254,7.7379941 13.7123894,7.25268437 C13.2786431,6.50176991 13.5369322,5.5379941 14.2880236,5.10412979 C14.5271386,4.9660767 14.7984661,4.89315634 15.0730383,4.89315634 C15.6340413,4.89315634 16.1565782,5.19457227 16.4367552,5.67982301 C16.8703835,6.43097345 16.6121534,7.39474926 15.8612389,7.82843658 Z M13.7124484,11.9713864 C13.9926254,11.4861357 14.5150442,11.1847198 15.0759882,11.1847198 C15.3505015,11.1847198 15.6219469,11.2576401 15.8611799,11.3956932 C16.2241298,11.6053687 16.4841888,11.9446018 16.5929204,12.3507375 C16.7019469,12.7572271 16.6463127,13.180944 16.4367552,13.5441888 C16.1565782,14.0294985 15.6340413,14.3308555 15.0730383,14.3308555 C14.7987021,14.3308555 14.5271976,14.2579941 14.2882006,14.120059 C13.5371091,13.6861947 13.2788791,12.7223599 13.7124484,11.9713864 Z" id="Shape"></path>
        </g>
    </g>
</svg>